<?xml version="1.0" standalone="no"?>
<!DOCTYPE svg PUBLIC "-//W3C//DTD SVG 20010904//EN"
 "http://www.w3.org/TR/2001/REC-SVG-20010904/DTD/svg10.dtd">
<svg version="1.0" xmlns="http://www.w3.org/2000/svg"
 width="16.000000pt" height="16.000000pt" viewBox="0 0 16.000000 16.000000"
 preserveAspectRatio="xMidYMid meet">
<metadata>
Created by potrace 1.11, written by Peter Selinger 2001-2013
</metadata>
<g transform="translate(0.000000,16.000000) scale(0.000878,-0.000878)"
fill="#000000" stroke="none">
<path d="M0 10945 l0 -7275 443 0 443 0 55 46 c30 25 63 53 74 62 63 53 412
345 540 452 83 69 287 240 455 380 168 140 310 259 316 265 6 5 29 25 52 43
23 19 51 43 64 54 13 11 94 79 182 152 87 72 168 139 180 149 11 11 216 182
454 380 239 199 691 577 1005 840 558 465 572 476 575 446 2 -16 -6 -283 -17
-592 -12 -309 -23 -645 -26 -747 -4 -102 -8 -228 -10 -280 -2 -52 -7 -165 -10
-250 -10 -277 -15 -423 -20 -545 -3 -66 -7 -190 -10 -275 -3 -85 -7 -202 -10
-260 -3 -58 -7 -186 -10 -285 -3 -99 -7 -220 -10 -270 -2 -49 -7 -164 -10
-255 -10 -302 -24 -660 -30 -810 -3 -63 -7 -187 -10 -275 -3 -88 -8 -218 -10
-290 -3 -71 -8 -186 -11 -255 -2 -69 -13 -341 -23 -605 -16 -405 -16 -481 -5
-490 11 -8 14 -58 16 -230 l3 -220 6793 -3 6792 -2 0 9110 0 9110 -9110 0
-9110 0 0 -7275z"/>
</g>
</svg>
